<svg id="Layer_1" data-name="Layer 1" xmlns="http://www.w3.org/2000/svg" viewBox="0 0 347.22 78.86"><defs><style>.cls-1{fill:#fff27b;stroke:#323232;stroke-miterlimit:10;stroke-width:0.5px;}</style></defs><path class="cls-1" d="M53.14,18.45H.84l-.55.75L3,24.55H6.58c-.08,2.11-.12,4.45-.12,7,0,8.36,1.88,11.29,6.57,14.65a13.23,13.23,0,0,0,7.61,2.73A10.11,10.11,0,0,0,26,47.32l-.15,10.47,6.21,1.8.55-.39-.16-34.65h10.2l-.16,33.2,6.29,1.84.55-.39-.16-34.65H85.8v4.72A23.89,23.89,0,0,0,76,32.79c-3.47-2.66-5.66-4.1-9.25-4.1-5.16,0-9.5,3.71-9.5,10.19,0,8.21,7.43,16.76,15.39,20.9l.51-.19,1.92-6.14C67.52,51,63.57,47.79,63.57,42.71c0-4.49,3.28-8,7.11-8a6.38,6.38,0,0,1,2.78.63,15.56,15.56,0,0,0-2.89,6.72l5.19,3.55h.55c1.56-5.47,3.2-8,9.45-9.72l-.12,21.91,6.21,1.8.55-.39-.16-34.65h30v5.66c-2.65-.08-5.74-.16-9-.16-10.7,0-12.81,5.51-12.81,9.69,0,7,6,15.39,12.5,20.12l.58-.12,2.82-6.17c-7-3.83-10.2-6.17-10.2-10.19a5.79,5.79,0,0,1,2.46-4.81c1.72-1.29,4.46-2,10.47-2h3.17l-.12,21.21,6.21,1.8.55-.39-.16-34.65h6.8l.54-.75-2.65-5.35H53.14ZM26.07,35.21a6.39,6.39,0,0,1-2.42,5.2,10,10,0,0,1-6,2.5c-4.07,0-4.3-4-4.3-11.06,0-2.77,0-5.27.12-7.3H26.07Z"/><path class="cls-1" d="M132.91,73.65l0-.43-4.73-4.14c-1.52,2.65-3.24,3.79-5.07,3.79a2.15,2.15,0,0,1-2.27-2.15c0-2.15,2.42-4.42,6-4.42,3.82,0,9.18,4,15.7,11.14H143l1.83-2.66c-9.41-9.53-15.07-13.67-20.93-13.67-4.53,0-8.28,2.85-8.28,7,0,4.61,5.66,9.73,10.35,9.73A7.74,7.74,0,0,0,132.91,73.65Z"/><path class="cls-1" d="M233.53,23.8l-2.65-5.35H205.41a15.67,15.67,0,0,0-4.88-.7,11.92,11.92,0,0,0-3.91.7H148.89l-.55.75L151,24.55h3.64c-.08,2.11-.12,4.45-.12,7,0,8.36,1.88,11.29,6.56,14.65a13.26,13.26,0,0,0,7.62,2.73A10.14,10.14,0,0,0,174,47.32l-.15,10.47,6.21,1.8.54-.39-.15-34.65h11.75a10.1,10.1,0,0,0-.15,1.64c0,4.18,4.18,8,10,11.91a8,8,0,0,1-2.62,1.49,16.14,16.14,0,0,0-6.17-1.45c-3.4,0-5.16,1.64-5.16,3.32a6,6,0,0,0,1.37,3c1.91,2.62,3.48,3.63,4.53,3.63A19.41,19.41,0,0,0,199.12,47c4.8,7.07,9,11.05,12.85,13.12h.43L215,53.34c-4.81-2.54-8.67-5.32-10.82-8.25,6-3.71,9.84-8.16,9.84-12.85a11.44,11.44,0,0,0-2.85-7.69h8.48l-.16,33.2,6.29,1.84.55-.39-.16-34.65H233ZM174.12,35.21a6.39,6.39,0,0,1-2.42,5.2,10,10,0,0,1-6.06,2.5c-4.06,0-4.29-4-4.29-11.06,0-2.77,0-5.27.11-7.3h12.66ZM205.33,35c-3.94-1-6.84-3.21-6.84-6.06s2.19-5.19,5.67-5.19a4.14,4.14,0,0,1,4.45,4.45C208.61,30.84,207.28,33,205.33,35Z"/><path class="cls-1" d="M219.47,73.14c-4.33,0-9-3.51-14.65-10.86h-.47l-1.87,2.15c7,9.53,13.2,14.18,19.1,14.18,5,0,8.44-3.28,8.44-7.23a10.88,10.88,0,0,0-1.41-5.08c-2-3.86-4.57-5.39-7.38-5.39a12.24,12.24,0,0,0-6.72,2.66L217.75,69h.51a9.65,9.65,0,0,1,5.43-2.27c1.64,0,2.19.86,2.19,1.53C225.88,71,222.71,73.14,219.47,73.14Z"/><path class="cls-1" d="M246.39,18.45l-.55.75,2.65,5.35h3.64c-.08,2.11-.12,4.45-.12,7,0,8.36,1.88,11.29,6.56,14.65a13.26,13.26,0,0,0,7.62,2.73,10.14,10.14,0,0,0,5.35-1.56l-.15,10.47,6.21,1.8.54-.39L278,24.55h6.79l.55-.75-2.66-5.35Zm25.23,16.76a6.39,6.39,0,0,1-2.42,5.2,10,10,0,0,1-6.06,2.5c-4.06,0-4.29-4-4.29-11.06,0-2.77,0-5.27.11-7.3h12.66Z"/><path class="cls-1" d="M339.24,18.45a31.32,31.32,0,0,0-4.65-10.27c-4-5.51-8.52-7.93-13.13-7.93-5.31,0-9,3.13-9,7.7a10.79,10.79,0,0,0,2.58,6.87L321,17.4l.58-.9a7.8,7.8,0,0,1-2.22-5.2c0-3,2.1-5.15,5.42-5.15,5.4,0,8,4.33,8.4,12.3H308.22l-.55.75,2.66,5.35h6.09v8.36a13.42,13.42,0,0,1-8.35,3,7.64,7.64,0,0,1-2.31-.35,7.55,7.55,0,0,0,1.95-5.08c0-5.82-5.86-13-12.18-13a7.58,7.58,0,0,0-7.86,7.65c0,3.64,2.62,6.76,6.37,9.42-5.12,2.61-7.93,5.9-7.93,9.92,0,3.63,1.92,7,5.28,9.88a15.71,15.71,0,0,0,10.31,4,10.93,10.93,0,0,0,4.1-.79l3.91,10.28L316,71.23l.67-.67L309.55,56a5.93,5.93,0,0,0,2.27-4.61c0-2.81-2.62-7.26-6.14-7.26a4.52,4.52,0,0,0-4.41,4.18,7.36,7.36,0,0,0,1.05,3.36,8.72,8.72,0,0,1-4.25,1.21,5.12,5.12,0,0,1-5.24-5.31c0-4.77,6.13-6.61,9.65-8.83a24.68,24.68,0,0,0,10,2.38,27.71,27.71,0,0,0,3.87-.23l-.12,16.95,6.25,1.8.55-.39-.16-34.65h10.2l-.16,33.2,6.29,1.84.54-.39-.15-34.65h6.8l.54-.75-2.65-5.35Zm-41.6,14.1c-2.31-.82-3.68-2.22-3.68-4.6,0-2.54,2.46-4.57,5.16-4.57a3.34,3.34,0,0,1,3.48,3.39C302.6,29.2,300.53,31.27,297.64,32.55Z"/></svg>